<svg width="889" height="255" viewBox="0 0 889 255" fill="none" xmlns="http://www.w3.org/2000/svg">
<path fill-rule="evenodd" clip-rule="evenodd" d="M641.232 0.978032C632.168 1.6814 624.241 2.50921 623.616 2.81941C622.991 3.12781 626.827 3.8907 632.14 4.51291C641.773 5.6419 641.759 5.64551 627.026 6.20099C618.899 6.50759 606.88 7.39671 600.317 8.17583C592.06 9.15694 596.263 9.33549 613.955 8.75476C654.391 7.42918 695.913 6.2569 701.252 6.28756C704.232 6.3056 705.875 5.60944 705.447 4.51291C704.986 3.328 714.93 2.7094 734.429 2.7094C755.501 2.7094 763.892 3.2775 763.351 4.66801C762.87 5.90161 763.582 6.47152 765.273 6.2046C766.749 5.97014 768.725 6.26051 769.662 6.85026C770.6 7.4382 779.039 8.78722 788.415 9.84768C797.792 10.9081 807.382 12.4916 809.726 13.3663C812.07 14.2392 813.988 14.2825 813.988 13.4619C813.988 11.4131 810.978 10.221 793.53 5.35334C791.342 4.74376 787.25 3.40555 784.437 2.38116C778.377 0.173667 665.843 -0.928276 641.232 0.978032ZM295.153 2.87712C289.812 3.88168 289.965 3.96283 297.711 4.22975C305.869 4.5093 308.334 3.74642 303.393 2.46953C301.986 2.10522 298.279 2.28918 295.153 2.87712ZM282.651 3.76445C281.401 4.07285 275.904 4.84655 270.433 5.48319C264.964 6.11983 260.489 7.23801 260.489 7.97023C260.489 8.70065 262.15 8.97659 264.182 8.58162C267.015 8.03155 267.478 8.30749 266.171 9.76833C264.876 11.2147 265.694 11.6277 269.581 11.4853C274.245 11.3157 274.395 11.1787 271.286 9.92343L267.876 8.54735L272.044 8.33274C274.335 8.21551 276.381 8.84313 276.59 9.72865C276.805 10.643 281.134 10.7548 286.629 9.98655C297.049 8.53293 296.868 7.83858 286.061 7.80071C282.31 7.78628 280.52 7.37868 282.083 6.89354C284.768 6.06032 288.402 2.41002 286.004 2.95468C285.411 3.08994 283.902 3.45425 282.651 3.76445ZM674.524 4.04219C670.643 4.39387 663.994 4.39568 659.749 4.0476C655.503 3.70133 658.678 3.41277 666.805 3.41096C674.931 3.40736 678.404 3.69231 674.524 4.04219ZM690.388 3.90332C689.607 4.40469 688.329 4.40469 687.547 3.90332C686.766 3.40375 687.405 2.99435 688.967 2.99435C690.53 2.99435 691.17 3.40375 690.388 3.90332ZM776.766 5.70683C775.985 6.2082 774.706 6.2082 773.924 5.70683C773.144 5.20726 773.782 4.79786 775.345 4.79786C776.908 4.79786 777.548 5.20726 776.766 5.70683ZM784.743 5.69601C783.974 6.19017 782.439 6.22083 781.334 5.76274C780.228 5.30465 780.857 4.90066 782.733 4.86459C784.608 4.82852 785.513 5.20184 784.743 5.69601ZM298.279 7.55903C299.372 8.01351 301.163 8.01351 302.257 7.55903C303.35 7.10635 302.456 6.73483 300.268 6.73483C298.08 6.73483 297.185 7.10635 298.279 7.55903ZM309.076 7.51034C309.858 8.01171 311.137 8.01171 311.917 7.51034C312.699 7.01076 312.059 6.60137 310.497 6.60137C308.934 6.60137 308.295 7.01076 309.076 7.51034ZM91.4906 10.4897C91.1633 11.3302 85.1976 11.8514 78.2328 11.6476C65.5955 11.2815 43.4612 13.9362 39.7356 16.2664C38.4888 17.0455 37.8558 19.1592 38.0058 22.0394C38.2615 26.9413 38.4377 27.1163 44.8285 28.8008C50.0589 30.1804 50.4806 33.0985 45.3968 32.7324C42.0121 32.4889 41.7303 32.8821 42.0303 37.4269C42.3167 41.7698 41.9632 42.3902 39.1889 42.4136C35.2144 42.4497 33.8142 44.053 33.5005 48.9297C33.2971 52.1021 34.0347 52.9642 37.7626 53.9092C43.7965 55.4404 43.4703 57.9346 37.0863 59.0762C32.0435 59.978 25.7731 66.4742 26.9733 69.5546C27.2711 70.3211 25.98 71.4844 24.1035 72.1391C21.1542 73.1671 20.911 73.6757 22.3078 75.8922C23.1966 77.3025 24.6002 78.4694 25.4265 78.4838C26.5585 78.5054 26.5187 78.9221 25.2651 80.1809C24.1001 81.3496 25.4287 82.0151 29.7079 82.4064C35.7395 82.9583 35.8134 83.0341 35.9157 88.8269C35.9736 92.0516 35.6361 94.6883 35.1678 94.6883C34.6996 94.6883 34.3154 96.3115 34.3154 98.2953C34.3154 100.968 33.5062 101.965 31.1899 102.148C28.4656 102.362 28.3963 102.494 30.6512 103.181C33.946 104.184 39.9391 109.091 37.8876 109.106C37.0204 109.111 36.6181 110.242 36.9681 111.69C37.8933 115.515 35.6429 117.578 28.1633 119.764C21.4713 121.719 18.5879 123.544 22.1918 123.544C23.2341 123.544 24.0865 124.762 24.0865 126.25C24.0865 128.354 22.5715 128.955 17.2672 128.955C9.91372 128.955 7.62699 132.4 14.71 132.807C17.3479 132.959 17.998 133.35 16.4148 133.835C15.0077 134.265 13.8575 135.316 13.8575 136.173C13.8575 137.029 12.8267 138.248 11.5674 138.883C10.3081 139.516 9.56025 140.759 9.90349 141.641C10.2479 142.525 8.84877 144.016 6.79503 144.956C3.56836 146.433 4.21961 146.694 11.5844 146.882C20.337 147.106 20.6621 149.005 12.3539 151.374C8.67034 152.424 8.2214 153.023 9.41136 155.297C10.5411 157.458 11.0059 157.524 11.7902 155.642C12.5471 153.822 13.1438 154.092 14.4713 156.855C16.0363 160.111 15.9624 160.556 13.5973 162.179C11.3878 163.694 11.9175 164.091 17.2672 164.939C22.8772 165.826 23.2704 166.152 21.103 168.124C19.7756 169.332 16.4511 170.861 13.7155 171.521C5.21296 173.574 4.7231 175.724 12.721 175.888L20.1086 176.037L10.4479 181.803L0.787235 187.569L6.46998 188.471L12.1527 189.373L5.45618 191.813C0.777008 193.519 -0.763015 194.733 0.34171 195.844C1.21231 196.718 2.94668 197.503 4.19688 197.587C6.45407 197.741 6.45407 197.752 4.21735 199.139C2.58299 200.15 3.98776 200.962 9.33181 202.093C16.0068 203.503 16.2716 203.71 12.1527 204.297C9.65231 204.652 7.12122 205.701 6.52681 206.627C5.85738 207.669 10.6082 208.363 19.0288 208.452C29.5181 208.562 31.8991 209.007 29.4851 210.405C27.6734 211.456 26.3596 213.567 26.3596 215.428C26.3596 218.032 24.3729 219.28 15.8613 222.021C10.0876 223.881 6.32677 225.697 7.5031 226.056C9.21474 226.579 9.32499 227.028 8.05547 228.303C6.88937 229.475 7.22124 229.91 9.31135 229.951C10.8741 229.982 12.9051 230.763 13.8257 231.686C15.6851 233.551 15.2021 234.008 9.15223 236.098C7.50197 236.668 5.87443 238.284 5.5346 239.69C5.01633 241.829 6.98029 242.111 17.6275 241.415C27.0211 240.801 29.8931 241.101 28.6327 242.562C27.1949 244.23 27.2847 244.495 29.201 244.253C32.9993 243.77 33.8312 244.347 32.0423 246.223C30.883 247.438 32.5185 247.597 37.1568 246.72C45.6468 245.114 45.2126 245.095 64.434 247.88C76.2131 249.586 93.4807 249.864 130.922 248.953C162.001 248.196 191.138 248.455 206.503 249.624C257.141 253.482 262.179 253.752 261.455 252.566C261.049 251.9 255.423 250.915 248.953 250.378C242.483 249.842 236.703 248.677 236.11 247.794C234.63 245.588 332.496 245.759 367.012 248.023C386.81 249.321 536.356 251.862 588.383 251.785C599.99 251.767 650.616 249.487 652.939 248.877C654.856 248.372 655.846 248.746 655.429 249.817C655.048 250.795 655.248 251.594 655.873 251.594C656.499 251.594 657.326 250.782 657.712 249.79C658.633 247.426 662.827 247.453 662.827 249.823C662.827 251.862 689.676 251.983 709.282 250.034C718.26 249.141 721.204 249.402 721.622 251.128C721.924 252.376 722.913 253.397 723.821 253.397C724.729 253.397 725.155 252.585 724.769 251.594C724.382 250.602 724.991 249.651 726.122 249.482C727.253 249.312 728.946 248.993 729.883 248.771C730.821 248.551 734.401 248.271 737.839 248.151C741.648 248.017 743.508 247.344 742.599 246.432C741.125 244.948 749.186 243.566 771.935 241.409C783.373 240.325 788.547 237.364 779.834 236.891C777.053 236.74 774.265 236.428 773.64 236.197C773.015 235.966 767.645 235.573 761.707 235.324L750.909 234.868L758.297 233.465C762.36 232.693 770.713 231.807 776.858 231.499C783.003 231.189 788.276 230.309 788.575 229.542C788.873 228.776 790.141 228.148 791.391 228.148C792.641 228.148 793.389 227.443 793.054 226.579C792.714 225.708 790.284 225.674 787.588 226.501C782.146 228.171 776.96 228.592 777.776 227.297C778.871 225.558 802.418 219.12 804.048 220.112C805 220.69 806.035 219.913 806.418 218.331C806.9 216.339 808.838 215.439 813.1 215.229L819.102 214.935L812.851 213.871C807.933 213.033 807.253 212.576 809.66 211.731C811.343 211.137 815.179 211.256 818.184 211.992C821.189 212.728 823.764 213.166 823.906 212.966C824.048 212.764 823.35 210.755 822.354 208.499C821.155 205.783 820.163 205.004 819.415 206.19C818.666 207.379 817.08 207.348 814.715 206.096C808.365 202.74 809.368 201.984 819.301 202.643C826.231 203.101 828.823 202.709 828.271 201.29C827.791 200.06 828.503 199.229 830.116 199.13C832.453 198.985 821.284 195.384 812.283 193.378C810.408 192.96 812.709 192.484 817.397 192.321C822.086 192.157 826.689 191.236 827.626 190.274C829.04 188.824 828.944 188.516 827.058 188.471C825.808 188.44 824.018 187.558 823.08 186.51C821.833 185.118 822.826 184.912 826.771 185.747C833.824 187.237 835.315 185.663 832.06 180.166C830.62 177.731 830.115 175.846 830.905 175.846C831.676 175.846 831.991 175.035 831.604 174.043C831.218 173.051 828.758 172.227 826.139 172.212C823.519 172.196 820.608 171.337 819.67 170.302C818.444 168.95 819.639 168.751 823.933 169.599C830.004 170.795 832.301 168.392 827.342 166.032C824.849 164.845 824.841 164.773 827.058 163.083C828.859 161.712 828.499 161.508 825.324 162.107C820.748 162.971 815.943 159.083 819.161 157.122C820.169 156.509 821.912 156.008 823.034 156.008C824.156 156.008 825.711 154.79 826.49 153.302C827.601 151.178 827.605 150.597 826.507 150.597C825.732 150.597 825.401 149.392 825.765 147.892C826.184 146.153 825.72 145.141 824.466 145.06C822.845 144.954 822.899 144.682 824.785 143.455C826.897 142.081 826.832 141.836 823.859 139.974C822.099 138.874 819.925 137.973 819.028 137.973C818.132 137.973 817.397 137.161 817.397 136.169C817.397 135.177 820.338 134.286 823.933 134.191L830.468 134.016L826.206 131.24C821.584 128.232 820.747 124.688 824.003 121.923C825.135 120.962 831.784 119.6 838.778 118.897C845.771 118.195 851.494 116.992 851.494 116.224C851.494 115.456 850.087 114.013 848.368 113.016C845.752 111.501 846.586 111.181 853.483 111.062C858.159 110.981 861.723 110.139 861.723 109.116C861.723 108.124 860.669 107.313 859.383 107.313C858.096 107.313 857.345 106.537 857.714 105.589C858.084 104.64 859.137 104.321 860.054 104.88C860.972 105.437 861.723 105.132 861.723 104.202C861.723 103.269 859.293 101.603 856.324 100.497C851.742 98.7913 853.501 98.5749 867.974 99.0618L885.022 99.6372L870.247 96.3403C844.393 90.5709 844.855 90.7206 848.084 89.1858C850.713 87.936 850.739 87.8206 848.435 87.6546C844.97 87.404 844.09 84.2929 847.215 83.3407C848.647 82.9024 847.689 82.4461 845.053 82.309C842.449 82.1738 840.148 81.263 839.939 80.2855C839.731 79.308 833.678 77.8436 826.49 77.0338C813.688 75.591 813.518 75.5152 818.216 73.3456C821.276 71.9335 829.249 71.277 840.235 71.5313C856.134 71.901 857.582 71.6611 859.069 68.4311C860.485 65.3525 862.389 64.8583 874.84 64.3317C886.13 63.8555 889 63.2153 889 61.1755C889 59.7688 888.556 58.6182 888.012 58.6182C886.414 58.6182 867.019 53.1842 864.848 52.1291C860.742 50.1308 863.088 47.7899 869.395 47.5897C875.86 47.3841 875.881 47.3661 871.383 45.8908C868.883 45.0702 862.746 44.2911 857.745 44.1612C848.839 43.9268 836.761 41.4758 840.128 40.5831C843.336 39.7336 831.614 37.243 823.779 37.1095C816.95 36.9923 815.618 36.4025 813.319 32.4673L810.686 27.9585L815.463 27.7962L820.239 27.6339L816.353 25.861C814.215 24.8871 811.531 24.4795 810.386 24.9539C809.242 25.4282 808.305 25.1414 808.305 24.3154C808.305 23.4894 807.409 22.4416 806.316 21.9871C805.223 21.5344 806.629 20.9663 809.442 20.7283L814.556 20.2936L809.442 18.9265C792.725 14.4611 673.846 11.9957 635.55 15.3213C624.61 16.2718 610.46 17.0689 604.105 17.0924C595.949 17.1248 592.38 17.8012 591.973 19.3919C591.539 21.089 591.163 21.1268 590.449 19.5397C589.648 17.7615 566.046 15.7145 563.947 17.2403C561.896 18.7318 262.501 18.5352 242.304 17.0293C228.864 16.0265 213.521 14.8903 208.207 14.5043C202.894 14.1184 187.079 13.379 173.064 12.865C159.048 12.3492 142.426 11.4185 136.126 10.7981C117.91 9.00184 92.1396 8.82329 91.4906 10.4897ZM668.297 9.35172C669.116 9.87293 670.097 9.80801 670.475 9.20924C670.852 8.61048 670.181 8.18485 668.983 8.2624C667.659 8.34897 667.39 8.7764 668.297 9.35172ZM637.61 11.1552C638.43 11.6764 639.41 11.6115 639.788 11.0128C640.165 10.414 639.495 9.98836 638.297 10.0659C636.973 10.1525 636.703 10.5799 637.61 11.1552ZM646.703 11.1552C647.522 11.6764 648.503 11.6115 648.88 11.0128C649.258 10.414 648.587 9.98836 647.389 10.0659C646.065 10.1525 645.796 10.5799 646.703 11.1552ZM281.799 14.8037C283.206 15.233 285.506 15.233 286.913 14.8037C288.32 14.3727 287.169 14.021 284.356 14.021C281.543 14.021 280.392 14.3727 281.799 14.8037ZM511.972 21.9276C511.202 22.4217 509.668 22.4524 508.562 21.9943C507.456 21.5362 508.086 21.1322 509.961 21.0962C511.836 21.0601 512.741 21.4334 511.972 21.9276ZM803.451 21.8338C803.073 22.4326 802.093 22.4975 801.273 21.9763C800.366 21.401 800.636 20.9735 801.96 20.887C803.158 20.8094 803.828 21.235 803.451 21.8338ZM634.087 25.0368C634.474 25.6518 630.743 26.247 625.795 26.3606C620.845 26.4724 603.755 26.9774 587.815 27.4806C571.874 27.9856 515.452 29.0226 462.432 29.7891C409.411 30.5556 363.242 31.7333 359.833 32.4096C353.571 33.6504 346.075 32.2184 347.449 30.0416C348.24 28.7881 358.999 28.4527 419.321 27.8088C442.344 27.5617 457.112 26.7321 457.112 25.6843C457.112 24.7393 457.831 24.4038 458.711 24.9394C461.141 26.4183 498.99 26.1676 526.441 24.4904C553.279 22.8492 632.964 23.255 634.087 25.0368ZM663.774 23.4515C662.956 24.7483 643.475 24.9052 642.667 23.6211C642.294 23.0313 647.02 22.548 653.166 22.548C659.313 22.548 664.086 22.9538 663.774 23.4515ZM668.202 23.6373C667.824 24.2361 666.843 24.301 666.024 23.7798C665.117 23.2045 665.386 22.777 666.71 22.6905C667.908 22.6129 668.579 23.0385 668.202 23.6373ZM581.861 25.6266C583.275 26.0576 585.321 26.0414 586.408 25.5905C587.494 25.1396 586.337 24.7861 583.837 24.806C581.336 24.8258 580.448 25.1955 581.861 25.6266ZM737.093 25.7041C737.382 26.4472 730.55 27.0568 721.913 27.0568C713.275 27.0568 705.824 26.4472 705.354 25.7041C704.885 24.9611 711.715 24.3515 720.534 24.3515C729.354 24.3515 736.805 24.9611 737.093 25.7041ZM742.953 26.155C739.85 28.2723 738.976 28.2723 738.976 26.155C738.976 25.1631 740.381 24.4092 742.101 24.4777C744.871 24.5914 744.967 24.7807 742.953 26.155ZM535.321 27.3868C536.14 27.908 537.121 27.8431 537.498 27.2443C537.876 26.6456 537.205 26.2199 536.007 26.2975C534.683 26.3841 534.414 26.8115 535.321 27.3868ZM542.089 27.4625C544.131 27.8629 547.2 27.8557 548.908 27.4445C550.617 27.0315 548.945 26.7033 545.194 26.7141C541.443 26.7231 540.047 27.0604 542.089 27.4625ZM312.662 31.6719C311.844 32.4745 310.71 32.6765 310.146 32.1228C309.581 31.5691 309.788 30.4582 310.605 29.6556C311.423 28.8531 312.556 28.6511 313.121 29.2047C313.686 29.7584 313.479 30.8694 312.662 31.6719ZM333.228 30.1534C333.228 30.9307 329.52 31.47 324.988 31.3527C318.872 31.194 317.626 30.7918 320.157 29.7927C324.521 28.0685 333.228 28.3102 333.228 30.1534ZM344.593 28.9054C344.593 30.8315 338.457 33.4736 336.726 32.2923C335.31 31.3257 335.529 30.7792 337.774 29.6935C341.245 28.0126 344.593 27.6267 344.593 28.9054ZM307.616 31.6683C307.251 32.6025 303.019 33.3564 298.212 33.342C293.404 33.3258 290.068 32.718 290.799 31.9894C292.822 29.9712 308.392 29.6737 307.616 31.6683ZM671.088 30.9451C670.319 31.4393 668.785 31.4699 667.679 31.0119C666.573 30.5538 667.202 30.1498 669.078 30.1137C670.953 30.0776 671.858 30.451 671.088 30.9451ZM750.625 32.8388C749.219 33.268 746.917 33.268 745.511 32.8388C744.105 32.4078 745.255 32.0561 748.068 32.0561C750.881 32.0561 752.031 32.4078 750.625 32.8388ZM45.6809 56.8146C45.6809 57.8066 45.4559 58.6182 45.1797 58.6182C44.9035 58.6182 44.3625 57.8066 43.9761 56.8146C43.5897 55.8227 43.8158 55.0111 44.4773 55.0111C45.1388 55.0111 45.6809 55.8227 45.6809 56.8146ZM14.7816 122.973C15.601 123.494 16.5819 123.429 16.9592 122.83C17.3365 122.232 16.666 121.806 15.468 121.883C14.144 121.97 13.8746 122.397 14.7816 122.973ZM822.772 153.49C822.395 154.089 821.414 154.154 820.594 153.632C819.688 153.057 819.957 152.63 821.281 152.543C822.479 152.466 823.149 152.891 822.772 153.49ZM24.0865 157.811C24.0865 158.803 23.5443 159.615 22.8829 159.615C22.2214 159.615 21.9952 158.803 22.3817 157.811C22.7681 156.819 23.3091 156.008 23.5853 156.008C23.8615 156.008 24.0865 156.819 24.0865 157.811ZM362.256 184.985C363.479 188.124 362.087 188.79 360.528 185.809C359.631 184.095 359.544 183.06 360.299 183.06C360.963 183.06 361.845 183.926 362.256 184.985ZM434.327 189.425C435.002 188.763 435.26 187.466 434.9 186.543C434.525 185.578 437.136 184.864 441.038 184.864C444.961 184.864 448.005 185.701 448.245 186.844C448.475 187.933 451.064 189.255 454.001 189.78C461.316 191.089 459.648 193.867 451.958 193.18C447.333 192.767 445.746 193.246 445.746 195.057C445.746 198.12 441.587 198.269 440.816 195.234C440.484 193.926 440.205 194.35 440.153 196.242C440.104 198.037 439.643 199.093 439.129 198.588C438.615 198.085 437.342 199.254 436.299 201.187C434.074 205.314 428.698 205.965 428.698 202.111C428.698 200.138 427.711 199.773 424.568 200.581C421.326 201.416 420.557 201.101 420.995 199.117C421.303 197.725 422.281 196.67 423.167 196.771C424.055 196.872 425.479 195.766 426.334 194.316C427.683 192.024 427.382 191.84 424.03 192.915C421.909 193.595 419.321 194.529 418.28 194.99C417.239 195.454 416.088 195.063 415.722 194.125C415.356 193.185 417.643 191.852 420.803 191.163C423.964 190.473 427.161 188.85 427.908 187.555C429.022 185.625 429.612 185.69 431.183 187.913C432.238 189.407 433.653 190.087 434.327 189.425ZM594.634 187.365C594.634 188.846 587.683 189.591 587.129 188.17C586.808 187.344 588.365 186.667 590.589 186.667C592.813 186.667 594.634 186.981 594.634 187.365ZM387.097 198.224C386.12 202.262 384.689 200.244 385.033 195.31C385.459 189.174 385.486 189.124 386.682 192.374C387.289 194.024 387.475 196.657 387.097 198.224ZM467.646 191.457C466.877 191.952 465.342 191.982 464.237 191.524C463.131 191.066 463.76 190.662 465.636 190.626C467.511 190.59 468.416 190.963 467.646 191.457ZM505.983 192.17C498.694 194.228 472.781 194.161 470.75 192.078C469.619 190.918 476.126 190.397 490.071 190.527C504.452 190.664 509.481 191.181 505.983 192.17ZM529.566 191.566C527.847 191.979 525.035 191.979 523.315 191.566C521.596 191.153 523.003 190.815 526.441 190.815C529.879 190.815 531.286 191.153 529.566 191.566ZM540.364 191.468C539.583 191.97 538.304 191.97 537.522 191.468C536.742 190.969 537.38 190.559 538.943 190.559C540.506 190.559 541.146 190.969 540.364 191.468ZM551.729 191.468C550.948 191.97 549.67 191.97 548.888 191.468C548.107 190.969 548.746 190.559 550.309 190.559C551.871 190.559 552.511 190.969 551.729 191.468ZM358.232 192.96C358.232 195.586 353.995 201.086 352.013 201.036C349.796 200.978 349.808 200.843 352.308 197.535L354.907 194.096L350.035 193.402C345.756 192.792 345.958 192.669 351.697 192.393C355.292 192.22 358.232 192.475 358.232 192.96ZM363.607 193.167C363.229 193.766 362.248 193.831 361.429 193.31C360.522 192.734 360.791 192.307 362.115 192.22C363.313 192.143 363.984 192.568 363.607 193.167ZM433.244 193.881C433.244 194.873 433.786 195.685 434.448 195.685C435.109 195.685 435.335 194.873 434.949 193.881C434.562 192.889 434.021 192.078 433.745 192.078C433.469 192.078 433.244 192.889 433.244 193.881ZM788.676 193.167C788.298 193.766 787.317 193.831 786.498 193.31C785.591 192.734 785.86 192.307 787.185 192.22C788.382 192.143 789.053 192.568 788.676 193.167ZM797.224 193.272C796.443 193.773 795.164 193.773 794.382 193.272C793.601 192.772 794.24 192.363 795.803 192.363C797.366 192.363 798.006 192.772 797.224 193.272ZM309.052 194.971C308.675 195.569 307.694 195.634 306.875 195.113C305.968 194.538 306.237 194.11 307.561 194.024C308.759 193.946 309.43 194.372 309.052 194.971ZM340.923 196.024C340.676 197.202 339.795 198.524 338.965 198.962C338.117 199.411 337.783 198.926 338.201 197.851C338.618 196.78 337.816 195.598 336.37 195.158C334.537 194.599 334.887 194.302 337.584 194.127C340.056 193.966 341.217 194.626 340.923 196.024ZM376.985 197.488C376.571 199.557 376.78 201.095 377.477 201.095C378.144 201.095 378.69 201.772 378.69 202.598C378.69 204.94 374.068 203.82 373.06 201.232C372.362 199.442 371.609 199.387 369.719 200.993C368.375 202.132 366.724 202.524 366.048 201.86C364.684 200.522 372.355 194.26 375.64 194.027C377.203 193.917 377.53 194.76 376.985 197.488ZM591.792 195.685C592.179 196.677 591.953 197.488 591.291 197.488C590.63 197.488 590.088 196.677 590.088 195.685C590.088 194.693 590.313 193.881 590.589 193.881C590.865 193.881 591.406 194.693 591.792 195.685ZM602.59 194.677C602.59 195.115 602.078 195.973 601.453 196.587C600.828 197.2 600.317 196.841 600.317 195.791C600.317 194.742 600.828 193.881 601.453 193.881C602.078 193.881 602.59 194.238 602.59 194.677ZM768.832 195.064C768.062 195.559 766.528 195.589 765.422 195.131C764.316 194.673 764.946 194.269 766.821 194.233C768.696 194.197 769.601 194.57 768.832 195.064ZM775.037 194.971C774.66 195.569 773.679 195.634 772.859 195.113C771.952 194.538 772.222 194.11 773.546 194.024C774.744 193.946 775.414 194.372 775.037 194.971ZM325.84 197.488C326.227 198.48 326 199.292 325.339 199.292C324.677 199.292 324.135 198.48 324.135 197.488C324.135 196.496 324.36 195.685 324.637 195.685C324.913 195.685 325.454 196.496 325.84 197.488ZM460.213 196.774C459.836 197.373 458.855 197.438 458.036 196.917C457.129 196.341 457.398 195.914 458.722 195.827C459.92 195.75 460.59 196.175 460.213 196.774ZM465.896 196.774C465.519 197.373 464.538 197.438 463.718 196.917C462.811 196.341 463.081 195.914 464.405 195.827C465.603 195.75 466.273 196.175 465.896 196.774ZM476.433 198.39C476.433 199.878 476.944 201.095 477.569 201.095C478.194 201.095 478.705 200.082 478.704 198.841C478.701 197.167 481.197 196.738 488.379 197.171C494.232 197.524 497.79 198.444 497.378 199.499C497.006 200.457 495.797 200.787 494.694 200.231C493.591 199.676 491.205 200.451 489.392 201.952C486.472 204.369 486.051 204.372 485.726 201.986C485.315 198.974 480.366 198.291 479.274 201.095C478.513 203.052 473.826 203.572 472.723 201.82C471.616 200.066 473.136 195.685 474.85 195.685C475.72 195.685 476.433 196.902 476.433 198.39ZM580.995 198.39C579.797 200.681 580.047 201.095 582.629 201.095C584.371 201.095 585.374 201.867 584.973 202.899C584.587 203.891 583.193 204.702 581.875 204.702C580.558 204.702 579.845 205.283 580.292 205.992C580.74 206.701 585.245 207.031 590.304 206.728C598.522 206.234 599.426 206.497 598.773 209.197C598.292 211.184 598.529 211.934 599.463 211.392C600.245 210.935 600.758 209.651 600.601 208.535C600.444 207.418 601.626 206.506 603.225 206.506C604.874 206.506 605.83 207.287 605.431 208.309C605.045 209.301 605.271 210.113 605.932 210.113C606.594 210.113 607.136 209.301 607.136 208.309C607.136 205.308 611.387 206.289 612.156 209.469C612.549 211.099 612.702 212.705 612.492 213.036C612.283 213.366 607.072 213.859 600.912 214.129C592.735 214.488 589.583 214.014 589.236 212.367C588.975 211.128 587.751 210.113 586.517 210.113C585.281 210.113 584.587 210.924 584.973 211.916C585.383 212.968 584.228 213.72 582.199 213.72C580.287 213.72 578.722 212.908 578.722 211.916C578.722 210.924 576.83 210.113 574.517 210.113C569.92 210.113 570.507 207.229 575.313 206.208C577.449 205.754 578.243 204.374 578.513 200.644C578.734 197.604 579.558 195.685 580.642 195.685C582.085 195.685 582.15 196.183 580.995 198.39ZM694.082 199.844C695.332 200.361 693.925 200.702 690.956 200.603C687.988 200.504 685.558 199.707 685.558 198.834C685.558 197.959 686.644 197.793 687.973 198.462C689.82 199.391 690.17 199.102 689.46 197.23C688.73 195.306 688.881 195.223 690.17 196.843C691.071 197.977 692.832 199.326 694.082 199.844ZM552.013 199.292C551.627 200.284 550.83 201.095 550.241 201.095C549.653 201.095 549.172 200.284 549.172 199.292C549.172 198.3 549.97 197.488 550.944 197.488C551.918 197.488 552.4 198.3 552.013 199.292ZM430.971 201.095C433.175 203.355 434.381 203.355 434.381 201.095C434.381 200.103 433.229 199.304 431.823 199.319C429.756 199.342 429.592 199.681 430.971 201.095ZM537.806 201.878C537.806 203.343 539.161 204.738 540.932 205.097C543.439 205.606 543.13 205.902 539.369 206.596C535.096 207.384 534.681 207.099 534.681 203.377C534.681 201.113 535.378 199.292 536.244 199.292C537.103 199.292 537.806 200.455 537.806 201.878ZM573.039 200.827C573.039 201.732 570.983 202.518 568.471 202.574C565.956 202.628 564.131 202.082 564.412 201.36C565.176 199.402 573.039 198.915 573.039 200.827ZM219.005 202.899C219.391 203.891 218.909 204.702 217.935 204.702C216.961 204.702 216.163 203.891 216.163 202.899C216.163 201.907 216.644 201.095 217.233 201.095C217.821 201.095 218.618 201.907 219.005 202.899ZM444.609 203.005C444.609 204.055 444.041 204.358 443.346 203.676C442.651 202.994 441.636 203.555 441.091 204.922C440.305 206.888 440.094 206.748 440.08 204.251C440.07 202.289 440.923 201.095 442.336 201.095C443.587 201.095 444.609 201.956 444.609 203.005ZM460.521 202.448C460.521 203.191 459.291 203.801 457.788 203.801C456.285 203.801 455.293 203.191 455.583 202.448C455.872 201.705 457.101 201.095 458.315 201.095C459.529 201.095 460.521 201.705 460.521 202.448ZM677.034 202.899C676.647 203.891 675.211 204.645 673.841 204.576C671.441 204.453 671.433 204.394 673.624 202.899C676.752 200.765 677.864 200.765 677.034 202.899ZM760.57 202.899C760.57 203.891 761.721 204.715 763.127 204.729C764.533 204.746 766.452 205.545 767.389 206.506C768.646 207.795 767.752 208.354 763.98 208.634C761.167 208.843 757.075 209.336 754.887 209.727C752.699 210.12 733.264 210.679 711.698 210.97C690.132 211.26 675.556 210.892 679.307 210.151C683.057 209.411 688.683 208.3 691.809 207.684C703.818 205.316 718.382 204.699 719.094 206.526C719.488 207.539 720.336 207.853 720.977 207.224C721.619 206.596 723.339 207.096 724.801 208.336C726.261 209.577 728.386 210.003 729.523 209.281C730.658 208.56 735.264 207.828 739.755 207.655C744.247 207.482 748.255 206.809 748.665 206.16C749.073 205.512 751.151 205.431 753.284 205.979C756.367 206.773 757.16 206.376 757.16 204.037C757.16 202.419 757.927 201.095 758.865 201.095C759.803 201.095 760.57 201.907 760.57 202.899ZM794.004 203.35C794.533 205.153 794.799 205.153 795.329 203.35C796.043 200.926 805.531 200.154 806.425 202.448C806.714 203.191 804.699 203.516 801.946 203.168C798.819 202.773 796.94 203.281 796.94 204.52C796.94 207.528 791.594 206.897 790.845 203.801C790.05 200.511 793.043 200.084 794.004 203.35ZM530.419 204.702C530.032 205.694 528.34 206.448 526.658 206.38C523.927 206.266 523.843 206.086 525.873 204.702C529.03 202.549 531.258 202.549 530.419 204.702ZM637.254 204.702C636.868 205.694 637.606 206.506 638.892 206.506C640.179 206.506 641.232 205.694 641.232 204.702C641.232 202.572 643.435 203.054 645.306 205.593C647.023 207.922 641.187 212.032 638.026 210.721C636.806 210.214 635.462 210.681 635.043 211.759C634.622 212.838 633.512 213.72 632.574 213.72C631.637 213.72 631.21 212.845 631.626 211.778C632.15 210.432 630.774 210.217 627.147 211.08C623.97 211.835 621.911 211.635 621.911 210.569C621.911 209.604 624.843 208.333 628.428 207.747C632.013 207.161 635.123 205.83 635.342 204.789C635.56 203.75 636.238 202.899 636.848 202.899C637.458 202.899 637.641 203.71 637.254 204.702ZM669.75 204.562C668.87 205.447 666.643 205.869 664.803 205.499C662.227 204.982 661.323 205.642 660.873 208.372C660.551 210.322 659.852 211.916 659.321 211.916C658.093 211.916 659.415 206.044 661.039 204.279C661.71 203.55 664.304 202.955 666.805 202.955C669.906 202.955 670.843 203.465 669.75 204.562ZM269.581 206.295C269.581 208.443 265.187 210.158 264.461 208.295C264.144 207.48 264.527 206.403 265.312 205.9C267.64 204.41 269.581 204.591 269.581 206.295ZM284.356 206.506C284.356 207.498 283.875 208.309 283.287 208.309C282.698 208.309 281.901 207.498 281.515 206.506C281.128 205.514 281.61 204.702 282.584 204.702C283.558 204.702 284.356 205.514 284.356 206.506ZM304.814 206.309C304.814 209.036 296.515 209.617 293.479 207.103C290.82 204.901 291.133 204.724 297.711 204.713C301.618 204.708 304.814 205.426 304.814 206.309ZM308.309 207.002C308.168 209.159 306.61 208.74 306.121 206.416C305.871 205.225 306.28 204.576 307.03 204.973C307.78 205.37 308.355 206.282 308.309 207.002ZM318.373 212.683C318.416 213.601 317.505 212.789 316.345 210.879C314.917 208.526 314.642 206.993 315.493 206.122C316.631 204.953 318.171 208.461 318.373 212.683ZM328.02 205.797C330.333 207.206 330.351 210.113 328.046 210.113C327.072 210.113 326.571 210.876 326.935 211.806C327.297 212.739 326.563 213.379 325.303 213.228C322.945 212.946 322.578 208.56 324.704 206.082C326.096 204.459 325.856 204.479 328.02 205.797ZM774.209 206.506C774.209 207.498 773.313 208.297 772.22 208.282C770.519 208.259 770.478 207.999 771.935 206.506C774.08 204.306 774.209 204.306 774.209 206.506ZM339.523 209.314C336.616 211.208 336.461 211.628 338.387 212.403C340.188 213.13 340.069 213.341 337.764 213.511C336.118 213.632 334.361 212.32 333.61 210.414C332.417 207.384 332.753 207.108 337.599 207.115C342.84 207.123 342.857 207.143 339.523 209.314ZM355.146 211.393C355.604 215.195 355.335 215.682 353.262 214.798C351.932 214.232 348.798 213.733 346.298 213.689C342.619 213.626 342.136 213.255 343.765 211.75C344.872 210.728 345.492 209.159 345.143 208.262C344.794 207.368 346.782 206.708 349.56 206.796C353.987 206.937 354.678 207.505 355.146 211.393ZM388.542 211.128C389.723 213.689 390.368 213.945 391.424 212.27C393.316 209.267 395.738 209.574 395.738 212.818C395.738 214.926 394.294 215.493 389.203 215.381C385.608 215.303 383.307 214.829 384.088 214.329C387.43 212.189 385.051 210.113 379.258 210.113C372.497 210.113 370.678 213.033 376.701 214.219C378.998 214.67 377.949 215.054 373.926 215.235C370.296 215.397 367.123 214.663 366.695 213.563C366.144 212.151 365.585 212.151 364.695 213.563C364.016 214.641 362.693 215.523 361.755 215.523C360.495 215.523 360.383 214.995 361.325 213.5C362.027 212.387 362.318 210.306 361.971 208.874C361.439 206.674 363.327 206.392 374.182 207.051C384.957 207.703 387.267 208.358 388.542 211.128ZM413.917 210.564C413.926 212.578 406.212 212.201 405.412 210.147C404.996 209.081 406.545 208.544 409.317 208.795C411.844 209.024 413.914 209.821 413.917 210.564ZM454.838 210.006C454.838 210.941 454.328 212.203 453.705 212.815C451.722 214.759 421.022 213.866 418.469 211.79C417.171 210.735 431.249 208.877 442.621 208.603C449.628 208.436 454.838 209.033 454.838 210.006ZM504.681 211.052C505.879 212.953 503.728 213.597 493.128 214.512C482.258 215.451 470.75 213.154 470.75 210.044C470.75 208.459 503.663 209.438 504.681 211.052ZM545.194 211.851C537.862 212.89 532.35 212.126 534.175 210.322C534.793 209.711 539.06 209.588 543.656 210.048L552.013 210.885L545.194 211.851ZM565.084 210.113C565.084 211.105 564.859 211.916 564.582 211.916C564.306 211.916 563.765 211.105 563.379 210.113C562.992 209.121 563.219 208.309 563.88 208.309C564.541 208.309 565.084 209.121 565.084 210.113ZM590.656 210.113C590.27 211.105 590.751 211.916 591.725 211.916C592.699 211.916 593.497 211.105 593.497 210.113C593.497 209.121 593.017 208.309 592.428 208.309C591.839 208.309 591.042 209.121 590.656 210.113ZM826.277 209.541C827.097 210.062 828.078 209.997 828.455 209.399C828.832 208.8 828.162 208.374 826.964 208.452C825.64 208.538 825.37 208.966 826.277 209.541ZM560.035 211.747C559.685 212.645 558.376 212.957 557.127 212.438C553.999 211.141 554.281 210.113 557.763 210.113C559.362 210.113 560.385 210.849 560.035 211.747ZM618.786 211.307C618.005 211.808 616.726 211.808 615.944 211.307C615.163 210.807 615.802 210.398 617.365 210.398C618.928 210.398 619.567 210.807 618.786 211.307ZM671.067 211.307C670.286 211.808 669.007 211.808 668.225 211.307C667.445 210.807 668.083 210.398 669.646 210.398C671.209 210.398 671.849 210.807 671.067 211.307ZM817.966 219.13C818.352 220.122 818.893 220.934 819.169 220.934C819.445 220.934 819.67 220.122 819.67 219.13C819.67 218.138 819.128 217.327 818.467 217.327C817.805 217.327 817.579 218.138 817.966 219.13ZM847.872 218.559C848.691 219.08 849.672 219.015 850.049 218.416C850.427 217.817 849.756 217.392 848.558 217.469C847.234 217.556 846.965 217.983 847.872 218.559ZM383.234 241.223C383.235 241.966 372.878 242.425 360.221 242.241C344.289 242.008 340.179 241.591 346.866 240.888C360.744 239.427 383.231 239.634 383.234 241.223ZM394.601 241.885C394.601 242.264 392.173 242.48 389.203 242.363C384.56 242.179 384.281 241.977 387.214 240.92C390.4 239.772 394.601 240.322 394.601 241.885ZM335.785 241.966C335.004 242.468 333.726 242.468 332.944 241.966C332.163 241.467 332.802 241.057 334.364 241.057C335.927 241.057 336.567 241.467 335.785 241.966ZM232.924 245.812C233.712 246.634 229.048 247.354 222.424 247.431C215.87 247.509 210.713 247.043 210.966 246.396C211.655 244.628 231.29 244.107 232.924 245.812ZM752.402 247.415C753.221 247.936 754.202 247.871 754.579 247.272C754.957 246.674 754.286 246.248 753.088 246.325C751.764 246.412 751.495 246.839 752.402 247.415ZM669.338 249.076C668.961 249.675 667.98 249.74 667.16 249.218C666.253 248.643 666.523 248.216 667.847 248.129C669.045 248.051 669.715 248.477 669.338 249.076ZM274.349 252.939C281.034 253.256 292.286 253.258 299.353 252.941C306.42 252.623 300.95 252.364 287.197 252.362C273.445 252.36 267.664 252.62 274.349 252.939ZM376.21 253.79C376.815 254.751 378.261 255.22 379.422 254.829C380.984 254.304 380.698 253.85 378.319 253.081C376.245 252.409 375.498 252.661 376.21 253.79ZM728.534 252.825C729.354 253.347 730.334 253.282 730.712 252.683C731.089 252.084 730.418 251.658 729.221 251.736C727.896 251.823 727.627 252.25 728.534 252.825ZM385.238 254.672C386.652 255.103 388.698 255.087 389.785 254.636C390.871 254.185 389.714 253.832 387.214 253.852C384.713 253.871 383.825 254.241 385.238 254.672ZM401.15 254.672C402.564 255.103 404.61 255.087 405.696 254.636C406.783 254.185 405.626 253.832 403.125 253.852C400.625 253.871 399.736 254.241 401.15 254.672ZM436.39 254.705C438.432 255.105 441.501 255.098 443.209 254.687C444.917 254.274 443.246 253.945 439.495 253.956C435.744 253.965 434.348 254.302 436.39 254.705ZM452.865 254.692C454.593 255.105 457.15 255.094 458.548 254.667C459.946 254.239 458.532 253.9 455.407 253.913C452.281 253.927 451.138 254.277 452.865 254.692ZM601.737 254.64C602.831 255.094 604.622 255.094 605.715 254.64C606.809 254.187 605.914 253.815 603.726 253.815C601.538 253.815 600.644 254.187 601.737 254.64ZM620.49 254.591C621.272 255.092 622.551 255.092 623.332 254.591C624.114 254.091 623.474 253.682 621.911 253.682C620.348 253.682 619.71 254.091 620.49 254.591Z" fill="white"/>
</svg>
